<?xml version="1.0" encoding="utf-8"?>
<!-- Generator: Adobe Illustrator 17.0.0, SVG Export Plug-In . SVG Version: 6.00 Build 0)  -->
<!DOCTYPE svg PUBLIC "-//W3C//DTD SVG 1.1//EN" "http://www.w3.org/Graphics/SVG/1.1/DTD/svg11.dtd">
<svg version="1.1" id="图层_1" xmlns="http://www.w3.org/2000/svg" xmlns:xlink="http://www.w3.org/1999/xlink" x="0px" y="0px"
	 width="24px" height="24px" viewBox="0 0 24 24" enable-background="new 0 0 24 24" xml:space="preserve">
<g>
	<path fill="#9095FF" d="M13.97,20.127H1.063V3.292h21.477v8.628c0.41,0.367,0.768,0.788,1.063,1.254V2.228H0V21.19h15.112
		C14.686,20.887,14.302,20.53,13.97,20.127z"/>
	<path fill="#9095FF" d="M2.259,4.267h8.506v14.885H2.259L2.259,4.267z M11.807,4.267h9.569v4.253h-9.569V4.267z M18.575,10.398
		c1.013,0,1.967,0.254,2.802,0.701V9.583h-9.569v4.253h1.377C14.16,11.74,16.263,10.399,18.575,10.398z M12.807,14.899h-0.999v4.253
		h1.514C12.626,17.848,12.442,16.331,12.807,14.899z"/>
	<path fill="#55D4FE" d="M18.577,10.926c-2.995,0-5.423,2.426-5.423,5.423s2.426,5.424,5.423,5.424c2.995,0,5.423-2.428,5.423-5.423
		S21.572,10.926,18.577,10.926z M21.508,13.705h-4.104c0.685,0.598,1.712,1.44,2.674,2.199l0.491,0.388l-0.477,0.404
		c-0.952,0.805-1.965,1.68-2.654,2.296h4.071v1.023h-5.84v-0.511c0-0.273,0-0.394,3.286-3.184c-3.267-2.603-3.276-2.858-3.286-3.106
		l-0.02-0.532h5.861v1.024H21.508z"/>
</g>
</svg>
