<?xml version="1.0" encoding="utf-8"?>
<!-- Generator: Adobe Illustrator 15.0.0, SVG Export Plug-In . SVG Version: 6.00 Build 0)  -->
<!DOCTYPE svg PUBLIC "-//W3C//DTD SVG 1.1//EN" "http://www.w3.org/Graphics/SVG/1.1/DTD/svg11.dtd">
<svg version="1.1" id="图层_1" xmlns="http://www.w3.org/2000/svg" xmlns:xlink="http://www.w3.org/1999/xlink" x="0px" y="0px"
	 width="24px" height="24px" viewBox="88 88 24 24" enable-background="new 88 88 24 24" xml:space="preserve">
<path fill="#13BD96" d="M97.785,99.143h-5.856c-0.75-0.001-1.358-0.609-1.358-1.36v-5.856c0-0.747,0.609-1.357,1.358-1.357h5.856
	c0.749,0,1.358,0.61,1.358,1.357v5.856c-0.001,0.75-0.608,1.357-1.358,1.358V99.143z"/>
<path fill="#13BD96" d="M108.071,99.143h-5.856c-0.75-0.001-1.357-0.609-1.357-1.36v-5.856c0-0.747,0.608-1.357,1.357-1.357h5.856
	c0.749,0,1.357,0.61,1.357,1.357v5.856c-0.001,0.75-0.608,1.357-1.357,1.358V99.143z"/>
<path fill="#13BD96" d="M91.929,109.429c-0.75-0.001-1.358-0.609-1.358-1.359v-5.856c0-0.747,0.609-1.357,1.358-1.357h5.856
	c0.749,0,1.358,0.61,1.358,1.357v5.856c-0.001,0.749-0.608,1.356-1.358,1.357h-5.856V109.429z"/>
<path fill="#13BD96" d="M99.323,112H88.48c-0.265,0-0.48-0.215-0.48-0.48V88.48c0-0.265,0.215-0.48,0.48-0.48h23.04
	c0.266,0,0.48,0.215,0.48,0.48v10.843c0,0.265-0.215,0.48-0.48,0.48c-0.265,0-0.479-0.215-0.479-0.48V88.96H88.96v22.08h10.363
	c0.265,0,0.48,0.214,0.481,0.479c0,0.265-0.214,0.48-0.479,0.48C99.324,112,99.323,112,99.323,112L99.323,112z"/>
<path fill="#FBD046" d="M106.434,100.915c3.062-0.001,5.545,2.48,5.546,5.543l0,0c-0.002,3.061-2.484,5.541-5.546,5.54
	c-3.062,0.002-5.546-2.479-5.547-5.54l0,0c0.001-3.063,2.483-5.544,5.545-5.543C106.433,100.915,106.434,100.915,106.434,100.915z
	 M109.272,106.102c0,0.569,0.462,1.031,1.032,1.031s1.032-0.462,1.032-1.031c0-0.57-0.462-1.032-1.032-1.032l0,0
	c-0.28,0-0.548,0.114-0.74,0.317l-3.009-1.533c0.01-0.058,0.034-0.111,0.034-0.173c0-0.57-0.463-1.033-1.033-1.033
	s-1.032,0.463-1.032,1.033c0,0.325,0.161,0.604,0.397,0.792l-1.351,3.408c-0.028-0.004-0.052-0.018-0.079-0.018
	c-0.57,0-1.032,0.462-1.032,1.032s0.462,1.032,1.032,1.032c0.569,0,1.032-0.462,1.032-1.032l0,0
	c-0.004-0.311-0.15-0.603-0.396-0.792l1.35-3.408c0.027,0.004,0.051,0.018,0.08,0.018c0.291,0,0.554-0.124,0.741-0.319l3.008,1.534
	c-0.01,0.059-0.034,0.111-0.034,0.172V106.102z"/>
</svg>
