<?xml version="1.0" encoding="utf-8"?>
<!-- Generator: Adobe Illustrator 17.0.0, SVG Export Plug-In . SVG Version: 6.00 Build 0)  -->
<!DOCTYPE svg PUBLIC "-//W3C//DTD SVG 1.1//EN" "http://www.w3.org/Graphics/SVG/1.1/DTD/svg11.dtd">
<svg version="1.1" id="图层_1" xmlns="http://www.w3.org/2000/svg" xmlns:xlink="http://www.w3.org/1999/xlink" x="0px" y="0px"
	 width="24px" height="24px" viewBox="0 0 24 24" enable-background="new 0 0 24 24" xml:space="preserve">
<g>
	<polygon fill="#F9D86B" points="24,13.402 19.399,12.767 17.341,8.809 15.283,12.767 10.681,13.402 14.012,16.483 13.225,20.834 
		17.341,18.779 21.458,20.834 20.67,16.483 	"/>
	<path fill="#4CA3FF" d="M11.804,18.234H2.726L1.446,4.422h4.377L6.984,6.49c0.034,0.104,0.096,0.197,0.179,0.269
		C7.366,6.984,7.687,7.061,7.97,6.952c0.01-0.006,0.018-0.014,0.028-0.019h12.755l-0.552,5.022h1.397l0.614-5.592
		c0.002-0.011-0.004-0.019-0.006-0.03c0-0.01,0.007-0.018,0.007-0.029c0-0.03-0.014-0.058-0.019-0.087
		c-0.009-0.046-0.013-0.092-0.03-0.135c-0.011-0.03-0.03-0.055-0.047-0.081c-0.03-0.044-0.058-0.088-0.096-0.126
		c-0.019-0.019-0.043-0.032-0.065-0.049c-0.046-0.037-0.096-0.068-0.15-0.091c-0.023-0.01-0.053-0.014-0.079-0.02
		c-0.043-0.014-0.088-0.034-0.138-0.04c-0.018-0.002-0.032,0.006-0.05,0.006c-0.006,0-0.014-0.004-0.019-0.004h-2.084V3.795
		c0-0.346-0.31-0.629-0.694-0.629H10.41c-0.384,0-0.694,0.282-0.694,0.629c0,0.346,0.311,0.628,0.694,0.628h7.637v1.256H8.081
		L6.886,3.546C6.877,3.528,6.862,3.518,6.85,3.501C6.819,3.444,6.78,3.392,6.733,3.348C6.701,3.32,6.661,3.303,6.623,3.281
		C6.588,3.259,6.553,3.233,6.511,3.216C6.445,3.195,6.377,3.183,6.309,3.18c-0.02-0.002-0.04-0.011-0.06-0.011H0.694
		c-0.009,0-0.018,0.005-0.026,0.006c-0.03,0-0.057-0.008-0.086-0.004C0.539,3.176,0.505,3.197,0.465,3.21
		C0.383,3.234,0.307,3.274,0.241,3.329C0.222,3.344,0.203,3.359,0.186,3.375c-0.038,0.04-0.071,0.084-0.098,0.133
		c-0.016,0.025-0.029,0.051-0.04,0.078c-0.015,0.046-0.025,0.093-0.03,0.14C0.014,3.749,0,3.771,0,3.795
		c0,0.018,0.01,0.03,0.012,0.047C0.014,3.859,0.006,3.872,0.01,3.89l1.385,14.953c0,0.006-0.005,0.014-0.005,0.021
		c0,0.019,0.01,0.036,0.012,0.056l0.007,0.065c0.002,0.018,0.016,0.029,0.019,0.045c0.015,0.043,0.03,0.085,0.051,0.126
		c0.028,0.05,0.063,0.095,0.102,0.137c0.008,0.006,0.016,0.015,0.025,0.022c0.16,0.15,0.379,0.219,0.596,0.189
		c0.015-0.003,0.025-0.012,0.039-0.014h9.562c0.384,0,0.694-0.282,0.694-0.629S12.186,18.234,11.804,18.234z"/>
</g>
</svg>
