<?xml version="1.0" encoding="utf-8"?>
<!-- Generator: Adobe Illustrator 17.0.0, SVG Export Plug-In . SVG Version: 6.00 Build 0)  -->
<!DOCTYPE svg PUBLIC "-//W3C//DTD SVG 1.1//EN" "http://www.w3.org/Graphics/SVG/1.1/DTD/svg11.dtd">
<svg version="1.1" id="图层_1" xmlns="http://www.w3.org/2000/svg" xmlns:xlink="http://www.w3.org/1999/xlink" x="0px" y="0px"
	 width="24px" height="24px" viewBox="0 0 24 24" enable-background="new 0 0 24 24" xml:space="preserve">
<g>
	<path fill="#4CA3FF" d="M2.668,20.803c-0.659,0.002-1.195-0.532-1.196-1.191c0-0.002,0-0.004,0-0.006V7.203
		c0-0.663,0.534-1.196,1.196-1.196H20.99c0.663,0,1.196,0.534,1.196,1.196v9.108l1.47,1.491V5.667c0-1.8-1.639-1.63-1.639-1.63
		s-9.791,0.01-9.268,0c-0.558,0.01-0.843-0.294-0.843-0.294s-0.389-0.673-1.092-1.73c-0.733-1.112-1.586-0.932-1.586-0.932H2.024
		C0.019,1.08,0,3.004,0,3.004v17.384c0,2.143,1.62,1.88,1.62,1.88h17.036l-1.446-1.466C17.211,20.803,2.668,20.803,2.668,20.803z"/>
	<path fill="#00D6AB" d="M12.09,12.611c0-0.059,0.005-0.114,0.009-0.17c-0.294,0.477-0.451,1.026-0.453,1.587
		c0.001,1.67,1.356,3.023,3.026,3.022c0.619,0,1.223-0.191,1.731-0.546c-0.133,0.016-0.266,0.024-0.4,0.025
		C13.842,16.525,12.091,14.772,12.09,12.611z"/>
	<path fill="#00D6AB" d="M23.606,20.165l-2.552-2.548c-0.253-0.25-0.593-0.391-0.949-0.395c-0.134,0-0.269,0.019-0.393,0.059
		l-0.115-0.114c0.693-0.971,1.065-2.134,1.067-3.327c0-3.174-2.582-5.763-5.753-5.763c-3.186,0.005-5.768,2.587-5.768,5.763
		c0,3.172,2.587,5.753,5.763,5.753c1.192,0,2.364-0.378,3.326-1.065l0.114,0.114c-0.069,0.225-0.074,0.463-0.025,0.694
		c0.056,0.244,0.174,0.473,0.36,0.653l2.548,2.548c0.254,0.254,0.594,0.393,0.953,0.393s0.698-0.138,0.952-0.393l0.474-0.474
		C23.861,21.809,24,21.471,24,21.112C24,20.758,23.861,20.419,23.606,20.165z M14.897,17.92c-2.249,0-4.077-1.825-4.077-4.073
		s1.83-4.077,4.077-4.077c2.251,0.002,4.076,1.826,4.078,4.077C18.97,16.097,17.146,17.918,14.897,17.92z"/>
</g>
</svg>
