<?xml version="1.0" encoding="utf-8"?>
<!-- Generator: Adobe Illustrator 17.0.0, SVG Export Plug-In . SVG Version: 6.00 Build 0)  -->
<!DOCTYPE svg PUBLIC "-//W3C//DTD SVG 1.1//EN" "http://www.w3.org/Graphics/SVG/1.1/DTD/svg11.dtd">
<svg version="1.1" id="图层_1" xmlns="http://www.w3.org/2000/svg" xmlns:xlink="http://www.w3.org/1999/xlink" x="0px" y="0px"
	 width="24px" height="24px" viewBox="0 0 24 24" enable-background="new 0 0 24 24" xml:space="preserve">
<path fill="#55D4FE" d="M23.454,20.278l-4.3-4.316c-0.529-0.53-1.344-0.651-2.004-0.297l-0.812-0.813
	c1.285-1.611,1.983-3.613,1.979-5.674C18.317,4.108,14.225,0,9.188,0c-5.05,0-9.141,4.108-9.141,9.178
	c0,5.057,4.091,9.167,9.141,9.167c2.138,0,4.104-0.74,5.653-1.986l0.811,0.814c-0.352,0.662-0.233,1.477,0.295,2.01l4.301,4.317
	c0.662,0.665,1.738,0.667,2.403,0.005c0.002-0.002,0.004-0.004,0.005-0.005l0.799-0.802C24.118,22.027,24.118,20.948,23.454,20.278
	 M1.745,9.177c0-4.133,3.329-7.476,7.445-7.476c4.104,0,7.446,3.343,7.446,7.476c0,4.132-3.342,7.462-7.446,7.462
	C5.074,16.642,1.745,13.297,1.745,9.177 M11.058,13.713c-3.643,0-6.598-2.966-6.598-6.625c0-0.097,0.01-0.192,0.015-0.29
	C3.977,7.605,3.713,8.535,3.713,9.483c0,2.829,2.284,5.122,5.1,5.122c1.046,0,2.067-0.323,2.922-0.926
	C11.51,13.702,11.284,13.713,11.058,13.713z"/>
</svg>
