<?xml version="1.0" encoding="utf-8"?>
<!-- Generator: Adobe Illustrator 15.0.0, SVG Export Plug-In . SVG Version: 6.00 Build 0)  -->
<!DOCTYPE svg PUBLIC "-//W3C//DTD SVG 1.1//EN" "http://www.w3.org/Graphics/SVG/1.1/DTD/svg11.dtd">
<svg version="1.1" id="图层_1" xmlns="http://www.w3.org/2000/svg" xmlns:xlink="http://www.w3.org/1999/xlink" x="0px" y="0px"
	 width="24px" height="24px" viewBox="52.125 52 24 24" enable-background="new 52.125 52 24 24" xml:space="preserve">
<path fill="#4CA3FF" d="M76.099,71.11c0.08,0.482-0.02,0.916-0.301,1.303c-0.281,0.385-0.664,0.619-1.146,0.699l-2.895,0.459
	c-0.465,0.08-0.896-0.021-1.289-0.303c-0.395-0.281-0.631-0.662-0.711-1.145l-2.461-15.581c-0.031-0.241-0.02-0.471,0.035-0.688
	c0.057-0.217,0.15-0.418,0.277-0.603c0.129-0.185,0.295-0.337,0.496-0.458s0.422-0.205,0.662-0.253l2.871-0.458
	c0.482-0.081,0.916,0.024,1.301,0.313c0.387,0.289,0.619,0.675,0.701,1.157L76.099,71.11z"/>
<path fill="#00D6AB" d="M65.198,54.493c-0.338-0.337-0.748-0.506-1.23-0.506h-2.726c-0.498,0-0.876,0.169-1.133,0.506
	c-0.258,0.338-0.386,0.748-0.386,1.23v16.112c0,0.48,0.168,0.891,0.506,1.229s0.748,0.508,1.23,0.508h2.508
	c0.482,0,0.893-0.17,1.23-0.508s0.506-0.748,0.506-1.229V55.723C65.704,55.241,65.536,54.831,65.198,54.493z M64.378,65.913
	c-0.113,0.152-0.25,0.229-0.41,0.229h-2.508c-0.161,0-0.298-0.076-0.41-0.229s-0.169-0.334-0.169-0.543
	c0-0.225,0.057-0.41,0.169-0.555s0.249-0.217,0.41-0.217h2.508c0.16,0,0.297,0.072,0.41,0.217c0.111,0.145,0.168,0.33,0.168,0.555
	C64.546,65.579,64.489,65.761,64.378,65.913z M64.378,62.85c-0.113,0.153-0.25,0.229-0.41,0.229h-2.508
	c-0.161,0-0.298-0.076-0.41-0.229s-0.169-0.342-0.169-0.567s0.057-0.41,0.169-0.555c0.112-0.145,0.249-0.217,0.41-0.217h2.508
	c0.16,0,0.297,0.072,0.41,0.217c0.111,0.145,0.168,0.33,0.168,0.555S64.489,62.697,64.378,62.85z"/>
<path fill="#4CA3FF" d="M57.636,54.493c-0.346-0.337-0.76-0.506-1.242-0.506h-2.508c-0.482,0-0.896,0.169-1.242,0.506
	c-0.346,0.338-0.519,0.748-0.519,1.23v16.112c0,0.48,0.173,0.891,0.519,1.229s0.76,0.508,1.242,0.508h2.508
	c0.482,0,0.896-0.17,1.242-0.508s0.519-0.748,0.519-1.229V55.723C58.155,55.241,57.982,54.831,57.636,54.493z M53.548,60.233
	c0.113-0.145,0.258-0.217,0.435-0.217h2.315c0.177,0,0.317,0.072,0.422,0.217c0.104,0.145,0.156,0.33,0.156,0.555
	c0,0.209-0.052,0.39-0.156,0.542c-0.104,0.153-0.245,0.229-0.422,0.229h-2.315c-0.177,0-0.321-0.077-0.435-0.229
	c-0.112-0.152-0.169-0.333-0.169-0.542C53.379,60.563,53.436,60.378,53.548,60.233z M56.817,67.372
	c-0.104,0.145-0.245,0.217-0.423,0.217h-2.411c-0.177,0-0.321-0.072-0.435-0.217c-0.112-0.145-0.169-0.321-0.169-0.53
	c0-0.226,0.057-0.406,0.169-0.543c0.113-0.137,0.258-0.205,0.435-0.205h2.411c0.178,0,0.318,0.068,0.423,0.205
	s0.156,0.317,0.156,0.543C56.973,67.051,56.921,67.228,56.817,67.372z M56.817,64.405c-0.104,0.145-0.245,0.217-0.423,0.217h-2.411
	c-0.177,0-0.321-0.072-0.435-0.217c-0.112-0.145-0.169-0.329-0.169-0.555c0-0.225,0.057-0.41,0.169-0.554
	c0.113-0.145,0.258-0.217,0.435-0.217h2.411c0.178,0,0.318,0.073,0.423,0.217s0.156,0.33,0.156,0.554
	C56.973,64.076,56.921,64.261,56.817,64.405z"/>
</svg>
