<?xml version="1.0" encoding="utf-8"?>
<!-- Generator: Adobe Illustrator 15.0.0, SVG Export Plug-In . SVG Version: 6.00 Build 0)  -->
<!DOCTYPE svg PUBLIC "-//W3C//DTD SVG 1.1//EN" "http://www.w3.org/Graphics/SVG/1.1/DTD/svg11.dtd">
<svg version="1.1" id="图层_1" xmlns="http://www.w3.org/2000/svg" xmlns:xlink="http://www.w3.org/1999/xlink" x="0px" y="0px"
	 width="128px" height="128px" viewBox="0 0 48 48" enable-background="new 0 0 48 48" xml:space="preserve">

	 	<ellipse cx="23.89" cy="20.146" rx="20" ry="5" fill-opacity="0.30" style="fill:rgb(232,56,40);
stroke:rgb(255,144,100);stroke-width:1" transform="matrix(0.34,0,0,0.34,15.797,29.556)" xmlns="http://www.w3.org/2000/svg">
<animate attributeType="xml" attributeName="rx" begin="0s" dur="2s" values="9;15;21;30;21;15;9" repeatCount="indefinite"/>
<animate attributeType="xml" attributeName="ry" begin="0s" dur="2s" values="5;10;12;10;5" repeatCount="indefinite"/>
	<animate attributeType="xml" attributeName="stroke-opacity" begin="0.5s" dur="2s" values=".9;.85;.8;.75;.6; .3; .9" repeatCount="indefinite"/>
</ellipse>


<path fill="#E83828" d="M43,20.146c0-10.554-8.559-19.11-19.111-19.11c-10.553,0-19.109,8.556-19.109,19.11&#xD;
	c0,5.959,2.729,11.279,7.003,14.784L23.89,47.036l12.112-12.112C40.271,31.419,43,26.103,43,20.146z" transform="matrix(0.506,0,0,0.506,11.801,12.16)" xmlns="http://www.w3.org/2000/svg" />
<circle fill="#FF99AF" cx="23.89" cy="20.146" r="17.199" transform="matrix(0.486,0,0,0.486,12.285,12.569)" xmlns="http://www.w3.org/2000/svg" />
<g transform="matrix(0.506,0,0,0.506,11.801,12.16)" xmlns="http://www.w3.org/2000/svg">
	<path d="M33.128,26.986c-0.323,0.995-0.584,1.829-0.783,2.501l-8.51-0.056c-2.669,0-4.604-0.591-5.804-1.773l-2.165,2.202&#xD;
		l-1.064-2.836c0.672-0.561,1.294-1.093,1.866-1.597v-4.711h-1.735v-2.37h4.18v7.101c0.971,1.076,2.495,1.614,4.572,1.614&#xD;
		l3.816,0.019C28.964,27.08,30.839,27.049,33.128,26.986z M17.396,11.74c0.933,1.219,1.773,2.364,2.52,3.434l-2.184,1.474&#xD;
		c-0.759-1.294-1.537-2.52-2.333-3.676L17.396,11.74z M30.516,21.37c0.722,0.336,1.468,0.647,2.239,0.933&#xD;
		c-0.218,1.412-0.412,2.313-0.583,2.701s-0.446,0.686-0.826,0.891c-0.379,0.206-0.854,0.309-1.427,0.309h-1.307&#xD;
		c-1.48,0-2.221-0.828-2.221-2.482v-2.986h-1.409c-0.081,1.624-0.382,2.829-0.905,3.616c-0.522,0.787-1.3,1.497-2.333,2.132&#xD;
		c-0.448-0.56-1.008-1.176-1.68-1.847c0.585-0.348,1.129-0.801,1.633-1.357s0.796-1.405,0.877-2.543h-2.659v-2.202h5.449v-2.071&#xD;
		h-2.547c-0.236,0.604-0.47,1.151-0.7,1.642c-0.61-0.311-1.307-0.647-2.09-1.008c0.709-1.443,1.35-3.147,1.922-5.113l2.183,0.709&#xD;
		l-0.513,1.568h1.745v-2.781h2.481v2.781h4.293v2.202h-4.293v2.071h4.983v2.202h-4.031v2.463c0,0.51,0.187,0.765,0.56,0.765h0.225&#xD;
		c0.342,0,0.56-0.12,0.652-0.359C30.329,23.365,30.422,22.62,30.516,21.37z" />
</g>
</svg>
